<svg width="31" height="33" viewBox="0 0 31 33" fill="none" xmlns="http://www.w3.org/2000/svg">
<path d="M7.59877 0L0 0.00020111V18.0854C1.0281e-07 20.1007 0.800584 22.0335 2.22563 23.4585C3.65068 24.8836 5.58345 25.6841 7.59877 25.6841L10.6889 22.2394H10.6969L16.1621 16.1629L16.1602 16.1602L30.699 9.46398e-05H20.466L8.40927 13.4245H7.59877V0Z" fill="#0B0F1F"/>
<path d="M0 25.6118V29.9938H3.79938V29.4112C3.79937 28.4035 3.39909 27.4371 2.68656 26.7246C1.97404 26.0121 1.00766 25.6118 0 25.6118Z" fill="#0B0F1F"/>
<path d="M17.1242 17.3853L11.9509 23.1373L12.6056 23.961L13.2592 24.7825C15.1492 27.1573 17.5506 29.0753 20.2845 30.3936C23.0185 31.7119 26.0145 32.3965 29.0497 32.3965L17.1242 17.3853Z" fill="#0B0F1F"/>
</svg>
